<?xml version="1.0" standalone="no"?>
<!DOCTYPE svg PUBLIC "-//W3C//DTD SVG 20010904//EN"
 "http://www.w3.org/TR/2001/REC-SVG-20010904/DTD/svg10.dtd">
<svg version="1.0" xmlns="http://www.w3.org/2000/svg"
 width="1063.000000pt" height="1063.000000pt" viewBox="0 0 1063.000000 1063.000000"
 preserveAspectRatio="xMidYMid meet">
<metadata>
Created by potrace 1.14, written by Peter Selinger 2001-2017
</metadata>
<g transform="translate(0.000000,1063.000000) scale(0.100000,-0.100000)"
fill="#000000" stroke="none">
<path d="M6050 10580 c-77 -10 -125 -28 -200 -76 -118 -75 -194 -166 -274
-328 -52 -106 -56 -117 -95 -266 l-27 -104 -385 -2 c-408 -2 -424 -3 -613 -34
-277 -47 -529 -122 -731 -219 -311 -149 -504 -294 -756 -567 -193 -209 -385
-570 -483 -910 -36 -125 -89 -377 -100 -474 -4 -30 -9 -71 -11 -90 -6 -51 -7
-586 0 -645 40 -379 128 -729 247 -986 74 -158 264 -430 462 -659 86 -99 811
-831 1073 -1083 l121 -117 -28 -24 c-44 -36 -243 -148 -402 -225 -592 -286
-1123 -387 -1836 -348 -74 4 -137 9 -140 11 -4 2 -47 7 -97 11 -49 3 -99 8
-110 10 -11 3 -42 7 -70 10 -27 3 -65 8 -82 11 -110 17 -202 22 -388 21 l-210
-2 -59 -29 c-149 -73 -208 -204 -166 -364 34 -127 98 -243 218 -393 92 -115
283 -304 422 -419 30 -25 57 -47 60 -50 3 -3 46 -37 95 -76 302 -236 642 -451
965 -612 69 -34 102 -64 400 -360 806 -803 993 -961 1289 -1092 166 -74 338
-100 466 -71 152 34 297 159 397 341 39 71 94 217 113 300 31 136 26 131 109
124 103 -9 612 -11 671 -3 28 4 86 10 129 14 43 4 88 9 100 11 12 2 50 9 86
15 525 89 994 323 1339 670 498 500 755 1294 698 2154 -26 390 -132 818 -272
1095 -66 132 -206 340 -326 485 -60 73 -206 240 -254 290 -180 191 -690 696
-928 919 -70 65 -127 122 -127 125 0 13 238 150 398 229 281 139 563 241 817
296 170 36 216 43 425 66 82 9 710 6 749 -3 13 -4 56 -9 95 -12 39 -3 78 -8
86 -10 8 -2 51 -7 95 -10 44 -4 83 -9 86 -10 3 -2 34 -7 70 -10 35 -4 80 -8
99 -11 76 -8 389 -4 434 6 99 22 170 75 211 157 26 50 30 69 30 138 -1 183
-114 379 -370 644 -343 354 -834 705 -1402 1001 -101 53 -102 53 -440 393
-186 186 -419 419 -519 516 -480 470 -849 672 -1154 631z"/>
</g>
</svg>
